<?xml version="1.0" encoding="UTF-8" standalone="no"?>
<!DOCTYPE svg PUBLIC "-//W3C//DTD SVG 1.1//EN"
 "http://www.w3.org/Graphics/SVG/1.1/DTD/svg11.dtd">
<!-- Generated by graphviz version 2.43.0 (0)
 -->
<!-- Title: dagger Pages: 1 -->
<svg width="1870pt" height="404pt"
 viewBox="0.00 0.00 1870.34 404.00" xmlns="http://www.w3.org/2000/svg" xmlns:xlink="http://www.w3.org/1999/xlink">
<g id="graph0" class="graph" transform="scale(1 1) rotate(0) translate(4 400)">
<title>dagger</title>
<polygon fill="white" stroke="transparent" points="-4,4 -4,-400 1866.34,-400 1866.34,4 -4,4"/>
<!-- CMPT459 -->
<g id="node1" class="node">
<title>CMPT459</title>
<ellipse fill="none" stroke="black" cx="309.79" cy="-306" rx="56.59" ry="18"/>
<text text-anchor="middle" x="309.79" y="-302.3" font-family="Times,serif" font-size="14.00">CMPT459</text>
</g>
<!-- CMPT354 -->
<g id="node2" class="node">
<title>CMPT354</title>
<ellipse fill="none" stroke="black" cx="457.79" cy="-234" rx="56.59" ry="18"/>
<text text-anchor="middle" x="457.79" y="-230.3" font-family="Times,serif" font-size="14.00">CMPT354</text>
</g>
<!-- CMPT459&#45;&gt;CMPT354 -->
<g id="edge1" class="edge">
<title>CMPT459&#45;&gt;CMPT354</title>
<path fill="none" stroke="black" d="M349.17,-286.38C373.74,-274.76 404.89,-260.02 427.53,-249.32"/>
<polygon fill="black" stroke="black" points="347.65,-283.23 340.1,-290.67 350.64,-289.55 347.65,-283.23"/>
</g>
<!-- CMPT225 -->
<g id="node8" class="node">
<title>CMPT225</title>
<ellipse fill="none" stroke="black" cx="1072.79" cy="-162" rx="56.59" ry="18"/>
<text text-anchor="middle" x="1072.79" y="-158.3" font-family="Times,serif" font-size="14.00">CMPT225</text>
</g>
<!-- CMPT354&#45;&gt;CMPT225 -->
<g id="edge41" class="edge">
<title>CMPT354&#45;&gt;CMPT225</title>
<path fill="none" stroke="black" d="M508.16,-218.98C513.08,-217.87 518.02,-216.85 522.79,-216 701.77,-184.18 917.15,-170.43 1016.97,-165.43"/>
<polygon fill="black" stroke="black" points="507.05,-215.65 498.14,-221.38 508.68,-222.46 507.05,-215.65"/>
</g>
<!-- MACM101 -->
<g id="node9" class="node">
<title>MACM101</title>
<ellipse fill="none" stroke="black" cx="700.79" cy="-90" rx="59.59" ry="18"/>
<text text-anchor="middle" x="700.79" y="-86.3" font-family="Times,serif" font-size="14.00">MACM101</text>
</g>
<!-- CMPT354&#45;&gt;MACM101 -->
<g id="edge42" class="edge">
<title>CMPT354&#45;&gt;MACM101</title>
<path fill="none" stroke="black" d="M471.56,-207.09C483.43,-187.13 502.34,-160.26 525.79,-144 562.19,-118.77 610.88,-105.3 647.67,-98.26"/>
<polygon fill="black" stroke="black" points="468.4,-205.58 466.46,-215.99 474.47,-209.06 468.4,-205.58"/>
</g>
<!-- CMPT454 -->
<g id="node3" class="node">
<title>CMPT454</title>
<ellipse fill="none" stroke="black" cx="1543.79" cy="-306" rx="56.59" ry="18"/>
<text text-anchor="middle" x="1543.79" y="-302.3" font-family="Times,serif" font-size="14.00">CMPT454</text>
</g>
<!-- CMPT300 -->
<g id="node4" class="node">
<title>CMPT300</title>
<ellipse fill="none" stroke="black" cx="1589.79" cy="-234" rx="56.59" ry="18"/>
<text text-anchor="middle" x="1589.79" y="-230.3" font-family="Times,serif" font-size="14.00">CMPT300</text>
</g>
<!-- CMPT454&#45;&gt;CMPT300 -->
<g id="edge2" class="edge">
<title>CMPT454&#45;&gt;CMPT300</title>
<path fill="none" stroke="black" d="M1560.5,-279.58C1566.58,-270.32 1573.3,-260.11 1578.76,-251.79"/>
<polygon fill="black" stroke="black" points="1557.5,-277.78 1554.93,-288.05 1563.35,-281.62 1557.5,-277.78"/>
</g>
<!-- CMPT300&#45;&gt;CMPT225 -->
<g id="edge30" class="edge">
<title>CMPT300&#45;&gt;CMPT225</title>
<path fill="none" stroke="black" d="M1531.37,-222.97C1516.53,-220.55 1500.59,-218.07 1485.79,-216 1348.87,-196.84 1313.72,-199.16 1176.79,-180 1158.59,-177.45 1138.65,-174.29 1121.14,-171.38"/>
<polygon fill="black" stroke="black" points="1531.01,-226.45 1541.45,-224.62 1532.15,-219.55 1531.01,-226.45"/>
</g>
<!-- CMPT295 -->
<g id="node22" class="node">
<title>CMPT295</title>
<ellipse fill="none" stroke="black" cx="1375.79" cy="-162" rx="56.59" ry="18"/>
<text text-anchor="middle" x="1375.79" y="-158.3" font-family="Times,serif" font-size="14.00">CMPT295</text>
</g>
<!-- CMPT300&#45;&gt;CMPT295 -->
<g id="edge31" class="edge">
<title>CMPT300&#45;&gt;CMPT295</title>
<path fill="none" stroke="black" d="M1541.55,-217.22C1502.88,-204.57 1449.37,-187.07 1413.72,-175.41"/>
<polygon fill="black" stroke="black" points="1540.94,-220.7 1551.54,-220.49 1543.12,-214.05 1540.94,-220.7"/>
</g>
<!-- MATH152 -->
<g id="node5" class="node">
<title>MATH152</title>
<ellipse fill="none" stroke="black" cx="120.79" cy="-90" rx="57.39" ry="18"/>
<text text-anchor="middle" x="120.79" y="-86.3" font-family="Times,serif" font-size="14.00">MATH152</text>
</g>
<!-- MATH151 -->
<g id="node6" class="node">
<title>MATH151</title>
<ellipse fill="none" stroke="black" cx="1504.79" cy="-90" rx="57.39" ry="18"/>
<text text-anchor="middle" x="1504.79" y="-86.3" font-family="Times,serif" font-size="14.00">MATH151</text>
</g>
<!-- CMPT310 -->
<g id="node7" class="node">
<title>CMPT310</title>
<ellipse fill="none" stroke="black" cx="725.79" cy="-234" rx="56.59" ry="18"/>
<text text-anchor="middle" x="725.79" y="-230.3" font-family="Times,serif" font-size="14.00">CMPT310</text>
</g>
<!-- CMPT310&#45;&gt;CMPT225 -->
<g id="edge3" class="edge">
<title>CMPT310&#45;&gt;CMPT225</title>
<path fill="none" stroke="black" d="M777.25,-219.19C781.82,-218.07 786.39,-216.99 790.79,-216 872.09,-197.75 967.53,-180.73 1023.93,-171.11"/>
<polygon fill="black" stroke="black" points="776.15,-215.86 767.3,-221.68 777.85,-222.65 776.15,-215.86"/>
</g>
<!-- CMPT310&#45;&gt;MACM101 -->
<g id="edge4" class="edge">
<title>CMPT310&#45;&gt;MACM101</title>
<path fill="none" stroke="black" d="M720.98,-205.68C715.92,-176.89 708.09,-132.42 703.82,-108.19"/>
<polygon fill="black" stroke="black" points="717.6,-206.63 722.78,-215.87 724.49,-205.42 717.6,-206.63"/>
</g>
<!-- CMPT225&#45;&gt;MACM101 -->
<g id="edge40" class="edge">
<title>CMPT225&#45;&gt;MACM101</title>
<path fill="none" stroke="black" d="M1015.4,-150.2C942.71,-136.52 818.68,-113.18 750.07,-100.27"/>
<polygon fill="black" stroke="black" points="1014.83,-153.65 1025.3,-152.06 1016.12,-146.77 1014.83,-153.65"/>
</g>
<!-- CMPT125 -->
<g id="node20" class="node">
<title>CMPT125</title>
<ellipse fill="none" stroke="black" cx="1241.79" cy="-90" rx="56.59" ry="18"/>
<text text-anchor="middle" x="1241.79" y="-86.3" font-family="Times,serif" font-size="14.00">CMPT125</text>
</g>
<!-- CMPT225&#45;&gt;CMPT125 -->
<g id="edge39" class="edge">
<title>CMPT225&#45;&gt;CMPT125</title>
<path fill="none" stroke="black" d="M1115.22,-143.43C1144.14,-131.45 1181.88,-115.82 1208.6,-104.75"/>
<polygon fill="black" stroke="black" points="1113.68,-140.28 1105.78,-147.34 1116.36,-146.74 1113.68,-140.28"/>
</g>
<!-- CMPT499 -->
<g id="node10" class="node">
<title>CMPT499</title>
<ellipse fill="none" stroke="black" cx="1295.79" cy="-378" rx="56.59" ry="18"/>
<text text-anchor="middle" x="1295.79" y="-374.3" font-family="Times,serif" font-size="14.00">CMPT499</text>
</g>
<!-- CMPT276 -->
<g id="node11" class="node">
<title>CMPT276</title>
<ellipse fill="none" stroke="black" cx="1419.79" cy="-234" rx="56.59" ry="18"/>
<text text-anchor="middle" x="1419.79" y="-230.3" font-family="Times,serif" font-size="14.00">CMPT276</text>
</g>
<!-- CMPT276&#45;&gt;MATH151 -->
<g id="edge7" class="edge">
<title>CMPT276&#45;&gt;MATH151</title>
<path fill="none" stroke="black" d="M1435.09,-207.44C1452.36,-178.59 1479.97,-132.47 1494.72,-107.82"/>
<polygon fill="black" stroke="black" points="1432.01,-205.78 1429.88,-216.15 1438.02,-209.37 1432.01,-205.78"/>
</g>
<!-- CMPT276&#45;&gt;CMPT225 -->
<g id="edge5" class="edge">
<title>CMPT276&#45;&gt;CMPT225</title>
<path fill="none" stroke="black" d="M1368.35,-219.11C1363.78,-218.01 1359.21,-216.95 1354.79,-216 1261.8,-195.95 1236.99,-199.09 1143.79,-180 1134.73,-178.14 1125.06,-175.96 1115.87,-173.8"/>
<polygon fill="black" stroke="black" points="1367.76,-222.57 1378.31,-221.58 1369.45,-215.77 1367.76,-222.57"/>
</g>
<!-- CMPT276&#45;&gt;MACM101 -->
<g id="edge6" class="edge">
<title>CMPT276&#45;&gt;MACM101</title>
<path fill="none" stroke="black" d="M1368.32,-219.25C1363.75,-218.12 1359.2,-217.02 1354.79,-216 1276.16,-197.78 1248.43,-217.2 1176.79,-180 1156.15,-169.28 1159.85,-153.9 1138.79,-144 1072.85,-113 863.02,-98.81 759.58,-93.56"/>
<polygon fill="black" stroke="black" points="1367.72,-222.71 1378.27,-221.77 1369.43,-215.92 1367.72,-222.71"/>
</g>
<!-- MACM401 -->
<g id="node12" class="node">
<title>MACM401</title>
<ellipse fill="none" stroke="black" cx="1161.79" cy="-378" rx="59.59" ry="18"/>
<text text-anchor="middle" x="1161.79" y="-374.3" font-family="Times,serif" font-size="14.00">MACM401</text>
</g>
<!-- CMPT307 -->
<g id="node13" class="node">
<title>CMPT307</title>
<ellipse fill="none" stroke="black" cx="1095.79" cy="-306" rx="56.59" ry="18"/>
<text text-anchor="middle" x="1095.79" y="-302.3" font-family="Times,serif" font-size="14.00">CMPT307</text>
</g>
<!-- MACM401&#45;&gt;CMPT307 -->
<g id="edge8" class="edge">
<title>MACM401&#45;&gt;CMPT307</title>
<path fill="none" stroke="black" d="M1139.12,-352.95C1129.95,-343.23 1119.61,-332.26 1111.32,-323.47"/>
<polygon fill="black" stroke="black" points="1136.75,-355.54 1146.15,-360.41 1141.84,-350.73 1136.75,-355.54"/>
</g>
<!-- MATH340 -->
<g id="node14" class="node">
<title>MATH340</title>
<ellipse fill="none" stroke="black" cx="1227.79" cy="-306" rx="57.39" ry="18"/>
<text text-anchor="middle" x="1227.79" y="-302.3" font-family="Times,serif" font-size="14.00">MATH340</text>
</g>
<!-- MACM401&#45;&gt;MATH340 -->
<g id="edge9" class="edge">
<title>MACM401&#45;&gt;MATH340</title>
<path fill="none" stroke="black" d="M1184.47,-352.95C1193.64,-343.23 1203.98,-332.26 1212.27,-323.47"/>
<polygon fill="black" stroke="black" points="1181.75,-350.73 1177.44,-360.41 1186.84,-355.54 1181.75,-350.73"/>
</g>
<!-- CMPT307&#45;&gt;MATH151 -->
<g id="edge29" class="edge">
<title>CMPT307&#45;&gt;MATH151</title>
<path fill="none" stroke="black" d="M1146.56,-291.16C1151.69,-289.99 1156.83,-288.91 1161.79,-288 1233.05,-274.93 1434.4,-303.05 1485.79,-252 1524.54,-213.52 1515.47,-140.9 1508.81,-107.99"/>
<polygon fill="black" stroke="black" points="1145.7,-287.76 1136.79,-293.48 1147.33,-294.57 1145.7,-287.76"/>
</g>
<!-- CMPT307&#45;&gt;CMPT225 -->
<g id="edge27" class="edge">
<title>CMPT307&#45;&gt;CMPT225</title>
<path fill="none" stroke="black" d="M1091.37,-277.68C1086.71,-248.89 1079.5,-204.42 1075.58,-180.19"/>
<polygon fill="black" stroke="black" points="1087.97,-278.56 1093.02,-287.87 1094.88,-277.44 1087.97,-278.56"/>
</g>
<!-- MACM201 -->
<g id="node28" class="node">
<title>MACM201</title>
<ellipse fill="none" stroke="black" cx="591.79" cy="-234" rx="59.59" ry="18"/>
<text text-anchor="middle" x="591.79" y="-230.3" font-family="Times,serif" font-size="14.00">MACM201</text>
</g>
<!-- CMPT307&#45;&gt;MACM201 -->
<g id="edge28" class="edge">
<title>CMPT307&#45;&gt;MACM201</title>
<path fill="none" stroke="black" d="M1045.42,-290.99C1040.5,-289.87 1035.57,-288.85 1030.79,-288 867.7,-258.95 823.05,-280.17 659.79,-252 651.52,-250.57 642.77,-248.68 634.39,-246.68"/>
<polygon fill="black" stroke="black" points="1044.91,-294.46 1055.45,-293.39 1046.54,-287.66 1044.91,-294.46"/>
</g>
<!-- CMPT376W -->
<g id="node15" class="node">
<title>CMPT376W</title>
<ellipse fill="none" stroke="black" cx="1403.79" cy="-306" rx="65.79" ry="18"/>
<text text-anchor="middle" x="1403.79" y="-302.3" font-family="Times,serif" font-size="14.00">CMPT376W</text>
</g>
<!-- CMPT376W&#45;&gt;CMPT276 -->
<g id="edge10" class="edge">
<title>CMPT376W&#45;&gt;CMPT276</title>
<path fill="none" stroke="black" d="M1410.04,-277.67C1412.01,-269.05 1414.13,-259.79 1415.89,-252.1"/>
<polygon fill="black" stroke="black" points="1406.57,-277.17 1407.75,-287.7 1413.39,-278.73 1406.57,-277.17"/>
</g>
<!-- CMPT474 -->
<g id="node16" class="node">
<title>CMPT474</title>
<ellipse fill="none" stroke="black" cx="1805.79" cy="-306" rx="56.59" ry="18"/>
<text text-anchor="middle" x="1805.79" y="-302.3" font-family="Times,serif" font-size="14.00">CMPT474</text>
</g>
<!-- CMPT371 -->
<g id="node17" class="node">
<title>CMPT371</title>
<ellipse fill="none" stroke="black" cx="1759.79" cy="-234" rx="56.59" ry="18"/>
<text text-anchor="middle" x="1759.79" y="-230.3" font-family="Times,serif" font-size="14.00">CMPT371</text>
</g>
<!-- CMPT474&#45;&gt;CMPT371 -->
<g id="edge11" class="edge">
<title>CMPT474&#45;&gt;CMPT371</title>
<path fill="none" stroke="black" d="M1789.09,-279.58C1783.01,-270.32 1776.29,-260.11 1770.83,-251.79"/>
<polygon fill="black" stroke="black" points="1786.24,-281.62 1794.66,-288.05 1792.09,-277.78 1786.24,-281.62"/>
</g>
<!-- CMPT371&#45;&gt;MATH151 -->
<g id="edge48" class="edge">
<title>CMPT371&#45;&gt;MATH151</title>
<path fill="none" stroke="black" d="M1724.16,-213.16C1672.47,-184.37 1577.84,-131.68 1531.63,-105.94"/>
<polygon fill="black" stroke="black" points="1722.55,-216.26 1732.99,-218.07 1725.95,-210.15 1722.55,-216.26"/>
</g>
<!-- CMPT371&#45;&gt;CMPT225 -->
<g id="edge47" class="edge">
<title>CMPT371&#45;&gt;CMPT225</title>
<path fill="none" stroke="black" d="M1701.87,-222.62C1686.9,-220.18 1670.78,-217.78 1655.79,-216 1443.8,-190.76 1388.79,-205.24 1176.79,-180 1158.36,-177.8 1138.19,-174.68 1120.56,-171.7"/>
<polygon fill="black" stroke="black" points="1701.59,-226.12 1712.03,-224.3 1702.73,-219.21 1701.59,-226.12"/>
</g>
<!-- MACM316 -->
<g id="node18" class="node">
<title>MACM316</title>
<ellipse fill="none" stroke="black" cx="59.79" cy="-234" rx="59.59" ry="18"/>
<text text-anchor="middle" x="59.79" y="-230.3" font-family="Times,serif" font-size="14.00">MACM316</text>
</g>
<!-- MACM316&#45;&gt;MATH152 -->
<g id="edge12" class="edge">
<title>MACM316&#45;&gt;MATH152</title>
<path fill="none" stroke="black" d="M71.21,-206.44C83.56,-177.67 102.91,-132.64 113.41,-108.19"/>
<polygon fill="black" stroke="black" points="67.88,-205.3 67.15,-215.87 74.32,-208.06 67.88,-205.3"/>
</g>
<!-- CMPT340 -->
<g id="node19" class="node">
<title>CMPT340</title>
<ellipse fill="none" stroke="black" cx="1242.79" cy="-162" rx="56.59" ry="18"/>
<text text-anchor="middle" x="1242.79" y="-158.3" font-family="Times,serif" font-size="14.00">CMPT340</text>
</g>
<!-- CMPT340&#45;&gt;CMPT125 -->
<g id="edge13" class="edge">
<title>CMPT340&#45;&gt;CMPT125</title>
<path fill="none" stroke="black" d="M1242.4,-133.67C1242.28,-125.05 1242.15,-115.79 1242.04,-108.1"/>
<polygon fill="black" stroke="black" points="1238.9,-133.75 1242.55,-143.7 1245.9,-133.65 1238.9,-133.75"/>
</g>
<!-- CMPT120 -->
<g id="node36" class="node">
<title>CMPT120</title>
<ellipse fill="none" stroke="black" cx="1306.79" cy="-18" rx="56.59" ry="18"/>
<text text-anchor="middle" x="1306.79" y="-14.3" font-family="Times,serif" font-size="14.00">CMPT120</text>
</g>
<!-- CMPT125&#45;&gt;CMPT120 -->
<g id="edge36" class="edge">
<title>CMPT125&#45;&gt;CMPT120</title>
<path fill="none" stroke="black" d="M1264.13,-64.95C1273.15,-55.23 1283.34,-44.26 1291.5,-35.47"/>
<polygon fill="black" stroke="black" points="1261.44,-62.7 1257.2,-72.41 1266.57,-67.46 1261.44,-62.7"/>
</g>
<!-- CMPT433 -->
<g id="node21" class="node">
<title>CMPT433</title>
<ellipse fill="none" stroke="black" cx="1674.79" cy="-306" rx="56.59" ry="18"/>
<text text-anchor="middle" x="1674.79" y="-302.3" font-family="Times,serif" font-size="14.00">CMPT433</text>
</g>
<!-- CMPT433&#45;&gt;CMPT300 -->
<g id="edge15" class="edge">
<title>CMPT433&#45;&gt;CMPT300</title>
<path fill="none" stroke="black" d="M1647.29,-282.35C1634.94,-272.18 1620.65,-260.41 1609.4,-251.15"/>
<polygon fill="black" stroke="black" points="1645.14,-285.11 1655.08,-288.76 1649.59,-279.71 1645.14,-285.11"/>
</g>
<!-- CMPT433&#45;&gt;CMPT295 -->
<g id="edge14" class="edge">
<title>CMPT433&#45;&gt;CMPT295</title>
<path fill="none" stroke="black" d="M1676.41,-277.7C1676.01,-257.87 1672,-231.84 1655.79,-216 1624.56,-185.49 1503.3,-171.86 1431,-166.33"/>
<polygon fill="black" stroke="black" points="1672.9,-277.94 1676.31,-287.97 1679.9,-278.01 1672.9,-277.94"/>
</g>
<!-- CMPT295&#45;&gt;MATH151 -->
<g id="edge52" class="edge">
<title>CMPT295&#45;&gt;MATH151</title>
<path fill="none" stroke="black" d="M1412.01,-141.35C1432.78,-130.08 1458.42,-116.17 1477.48,-105.82"/>
<polygon fill="black" stroke="black" points="1410.27,-138.31 1403.15,-146.15 1413.61,-144.46 1410.27,-138.31"/>
</g>
<!-- CMPT295&#45;&gt;MACM101 -->
<g id="edge51" class="edge">
<title>CMPT295&#45;&gt;MACM101</title>
<path fill="none" stroke="black" d="M1325.13,-147.23C1319.64,-146.01 1314.12,-144.9 1308.79,-144 1109.26,-110.22 869.02,-97.34 759.89,-92.98"/>
<polygon fill="black" stroke="black" points="1324.38,-150.65 1334.92,-149.51 1325.97,-143.83 1324.38,-150.65"/>
</g>
<!-- CMPT295&#45;&gt;CMPT125 -->
<g id="edge49" class="edge">
<title>CMPT295&#45;&gt;CMPT125</title>
<path fill="none" stroke="black" d="M1338.73,-141.64C1316.95,-130.26 1289.85,-116.1 1269.85,-105.65"/>
<polygon fill="black" stroke="black" points="1337.22,-144.8 1347.7,-146.33 1340.46,-138.59 1337.22,-144.8"/>
</g>
<!-- CMPT127 -->
<g id="node37" class="node">
<title>CMPT127</title>
<ellipse fill="none" stroke="black" cx="1372.79" cy="-90" rx="56.59" ry="18"/>
<text text-anchor="middle" x="1372.79" y="-86.3" font-family="Times,serif" font-size="14.00">CMPT127</text>
</g>
<!-- CMPT295&#45;&gt;CMPT127 -->
<g id="edge50" class="edge">
<title>CMPT295&#45;&gt;CMPT127</title>
<path fill="none" stroke="black" d="M1374.62,-133.67C1374.25,-125.05 1373.86,-115.79 1373.53,-108.1"/>
<polygon fill="black" stroke="black" points="1371.13,-133.86 1375.05,-143.7 1378.12,-133.56 1371.13,-133.86"/>
</g>
<!-- CMPT363 -->
<g id="node23" class="node">
<title>CMPT363</title>
<ellipse fill="none" stroke="black" cx="1157.79" cy="-234" rx="56.59" ry="18"/>
<text text-anchor="middle" x="1157.79" y="-230.3" font-family="Times,serif" font-size="14.00">CMPT363</text>
</g>
<!-- CMPT363&#45;&gt;CMPT225 -->
<g id="edge16" class="edge">
<title>CMPT363&#45;&gt;CMPT225</title>
<path fill="none" stroke="black" d="M1130.29,-210.35C1117.94,-200.18 1103.65,-188.41 1092.4,-179.15"/>
<polygon fill="black" stroke="black" points="1128.14,-213.11 1138.08,-216.76 1132.59,-207.71 1128.14,-213.11"/>
</g>
<!-- CMPT361 -->
<g id="node24" class="node">
<title>CMPT361</title>
<ellipse fill="none" stroke="black" cx="856.79" cy="-234" rx="56.59" ry="18"/>
<text text-anchor="middle" x="856.79" y="-230.3" font-family="Times,serif" font-size="14.00">CMPT361</text>
</g>
<!-- CMPT361&#45;&gt;CMPT225 -->
<g id="edge17" class="edge">
<title>CMPT361&#45;&gt;CMPT225</title>
<path fill="none" stroke="black" d="M904.52,-217.53C943.68,-204.84 998.41,-187.1 1034.69,-175.35"/>
<polygon fill="black" stroke="black" points="903.35,-214.23 894.91,-220.65 905.51,-220.89 903.35,-214.23"/>
</g>
<!-- CMPT365 -->
<g id="node25" class="node">
<title>CMPT365</title>
<ellipse fill="none" stroke="black" cx="1288.79" cy="-234" rx="56.59" ry="18"/>
<text text-anchor="middle" x="1288.79" y="-230.3" font-family="Times,serif" font-size="14.00">CMPT365</text>
</g>
<!-- CMPT365&#45;&gt;CMPT225 -->
<g id="edge18" class="edge">
<title>CMPT365&#45;&gt;CMPT225</title>
<path fill="none" stroke="black" d="M1241.07,-217.53C1201.91,-204.84 1147.18,-187.1 1110.9,-175.35"/>
<polygon fill="black" stroke="black" points="1240.08,-220.89 1250.68,-220.65 1242.24,-214.23 1240.08,-220.89"/>
</g>
<!-- CMPT469 -->
<g id="node26" class="node">
<title>CMPT469</title>
<ellipse fill="none" stroke="black" cx="964.79" cy="-306" rx="56.59" ry="18"/>
<text text-anchor="middle" x="964.79" y="-302.3" font-family="Times,serif" font-size="14.00">CMPT469</text>
</g>
<!-- CMPT469&#45;&gt;CMPT361 -->
<g id="edge19" class="edge">
<title>CMPT469&#45;&gt;CMPT361</title>
<path fill="none" stroke="black" d="M932.28,-283.93C915.73,-273.2 895.97,-260.39 880.81,-250.57"/>
<polygon fill="black" stroke="black" points="930.8,-287.14 941.09,-289.64 934.61,-281.26 930.8,-287.14"/>
</g>
<!-- CMPT404 -->
<g id="node27" class="node">
<title>CMPT404</title>
<ellipse fill="none" stroke="black" cx="440.79" cy="-306" rx="56.59" ry="18"/>
<text text-anchor="middle" x="440.79" y="-302.3" font-family="Times,serif" font-size="14.00">CMPT404</text>
</g>
<!-- CMPT404&#45;&gt;MACM201 -->
<g id="edge20" class="edge">
<title>CMPT404&#45;&gt;MACM201</title>
<path fill="none" stroke="black" d="M480.56,-286.56C505.55,-274.98 537.32,-260.25 560.5,-249.51"/>
<polygon fill="black" stroke="black" points="478.95,-283.45 471.35,-290.83 481.9,-289.8 478.95,-283.45"/>
</g>
<!-- MACM201&#45;&gt;MACM101 -->
<g id="edge43" class="edge">
<title>MACM201&#45;&gt;MACM101</title>
<path fill="none" stroke="black" d="M624.24,-211.53C635.84,-202.74 648.37,-191.84 657.79,-180 675.53,-157.71 688.35,-126.91 695.16,-108"/>
<polygon fill="black" stroke="black" points="622.02,-208.81 616.01,-217.54 626.15,-214.47 622.02,-208.81"/>
</g>
<!-- MATH240 -->
<g id="node33" class="node">
<title>MATH240</title>
<ellipse fill="none" stroke="black" cx="591.79" cy="-162" rx="57.39" ry="18"/>
<text text-anchor="middle" x="591.79" y="-158.3" font-family="Times,serif" font-size="14.00">MATH240</text>
</g>
<!-- MACM201&#45;&gt;MATH240 -->
<g id="edge44" class="edge">
<title>MACM201&#45;&gt;MATH240</title>
<path fill="none" stroke="black" d="M591.79,-205.67C591.79,-197.05 591.79,-187.79 591.79,-180.1"/>
<polygon fill="black" stroke="black" points="588.29,-205.7 591.79,-215.7 595.29,-205.7 588.29,-205.7"/>
</g>
<!-- CMPT461 -->
<g id="node29" class="node">
<title>CMPT461</title>
<ellipse fill="none" stroke="black" cx="833.79" cy="-306" rx="56.59" ry="18"/>
<text text-anchor="middle" x="833.79" y="-302.3" font-family="Times,serif" font-size="14.00">CMPT461</text>
</g>
<!-- CMPT461&#45;&gt;CMPT361 -->
<g id="edge22" class="edge">
<title>CMPT461&#45;&gt;CMPT361</title>
<path fill="none" stroke="black" d="M842.57,-278.29C845.44,-269.57 848.54,-260.12 851.12,-252.28"/>
<polygon fill="black" stroke="black" points="839.16,-277.46 839.36,-288.05 845.81,-279.65 839.16,-277.46"/>
</g>
<!-- CMPT461&#45;&gt;MACM201 -->
<g id="edge21" class="edge">
<title>CMPT461&#45;&gt;MACM201</title>
<path fill="none" stroke="black" d="M783.55,-290.47C739.05,-277.59 674.87,-259.03 633.24,-246.99"/>
<polygon fill="black" stroke="black" points="782.71,-293.87 793.29,-293.28 784.66,-287.14 782.71,-293.87"/>
</g>
<!-- CMPT305 -->
<g id="node30" class="node">
<title>CMPT305</title>
<ellipse fill="none" stroke="black" cx="193.79" cy="-234" rx="56.59" ry="18"/>
<text text-anchor="middle" x="193.79" y="-230.3" font-family="Times,serif" font-size="14.00">CMPT305</text>
</g>
<!-- CMPT305&#45;&gt;CMPT225 -->
<g id="edge23" class="edge">
<title>CMPT305&#45;&gt;CMPT225</title>
<path fill="none" stroke="black" d="M244.3,-218.97C249.51,-217.83 254.74,-216.81 259.79,-216 406.27,-192.57 858.5,-171.96 1017.12,-165.27"/>
<polygon fill="black" stroke="black" points="243.33,-215.6 234.38,-221.28 244.92,-222.42 243.33,-215.6"/>
</g>
<!-- CMPT305&#45;&gt;MACM101 -->
<g id="edge24" class="edge">
<title>CMPT305&#45;&gt;MACM101</title>
<path fill="none" stroke="black" d="M241.77,-217.67C299.8,-199.31 400.56,-168.04 487.79,-144 545.1,-128.21 611.66,-111.98 654.92,-101.71"/>
<polygon fill="black" stroke="black" points="240.62,-214.36 232.14,-220.72 242.73,-221.04 240.62,-214.36"/>
</g>
<!-- STAT270 -->
<g id="node31" class="node">
<title>STAT270</title>
<ellipse fill="none" stroke="black" cx="166.79" cy="-162" rx="51.99" ry="18"/>
<text text-anchor="middle" x="166.79" y="-158.3" font-family="Times,serif" font-size="14.00">STAT270</text>
</g>
<!-- CMPT305&#45;&gt;STAT270 -->
<g id="edge25" class="edge">
<title>CMPT305&#45;&gt;STAT270</title>
<path fill="none" stroke="black" d="M183.6,-206.57C180.21,-197.77 176.51,-188.2 173.46,-180.28"/>
<polygon fill="black" stroke="black" points="180.39,-207.98 187.26,-216.05 186.93,-205.47 180.39,-207.98"/>
</g>
<!-- STAT270&#45;&gt;MATH152 -->
<g id="edge45" class="edge">
<title>STAT270&#45;&gt;MATH152</title>
<path fill="none" stroke="black" d="M150.09,-135.58C144.01,-126.32 137.29,-116.11 131.83,-107.79"/>
<polygon fill="black" stroke="black" points="147.24,-137.62 155.66,-144.05 153.09,-133.78 147.24,-137.62"/>
</g>
<!-- MATH308 -->
<g id="node32" class="node">
<title>MATH308</title>
<ellipse fill="none" stroke="black" cx="325.79" cy="-234" rx="57.39" ry="18"/>
<text text-anchor="middle" x="325.79" y="-230.3" font-family="Times,serif" font-size="14.00">MATH308</text>
</g>
<!-- MATH308&#45;&gt;MATH240 -->
<g id="edge26" class="edge">
<title>MATH308&#45;&gt;MATH240</title>
<path fill="none" stroke="black" d="M377.92,-219.28C428.07,-206.09 502.95,-186.38 549.5,-174.13"/>
<polygon fill="black" stroke="black" points="377.02,-215.9 368.24,-221.83 378.8,-222.67 377.02,-215.9"/>
</g>
<!-- MATH240&#45;&gt;MACM101 -->
<g id="edge38" class="edge">
<title>MATH240&#45;&gt;MACM101</title>
<path fill="none" stroke="black" d="M624.15,-140.22C640.94,-129.44 661.12,-116.48 676.55,-106.57"/>
<polygon fill="black" stroke="black" points="622.24,-137.29 615.72,-145.64 626.02,-143.18 622.24,-137.29"/>
</g>
<!-- CMPT464 -->
<g id="node34" class="node">
<title>CMPT464</title>
<ellipse fill="none" stroke="black" cx="702.79" cy="-306" rx="56.59" ry="18"/>
<text text-anchor="middle" x="702.79" y="-302.3" font-family="Times,serif" font-size="14.00">CMPT464</text>
</g>
<!-- CMPT464&#45;&gt;MACM316 -->
<g id="edge32" class="edge">
<title>CMPT464&#45;&gt;MACM316</title>
<path fill="none" stroke="black" d="M652.45,-290.86C647.52,-289.77 642.58,-288.79 637.79,-288 413.58,-251.09 352.2,-287.69 127.79,-252 119.38,-250.66 110.49,-248.78 102,-246.76"/>
<polygon fill="black" stroke="black" points="651.94,-294.33 662.48,-293.22 653.54,-287.52 651.94,-294.33"/>
</g>
<!-- CMPT464&#45;&gt;CMPT361 -->
<g id="edge33" class="edge">
<title>CMPT464&#45;&gt;CMPT361</title>
<path fill="none" stroke="black" d="M743.11,-286.67C768.92,-274.95 801.89,-259.96 825.68,-249.14"/>
<polygon fill="black" stroke="black" points="741.61,-283.51 733.96,-290.83 744.51,-289.88 741.61,-283.51"/>
</g>
<!-- CMPT466 -->
<g id="node35" class="node">
<title>CMPT466</title>
<ellipse fill="none" stroke="black" cx="571.79" cy="-306" rx="56.59" ry="18"/>
<text text-anchor="middle" x="571.79" y="-302.3" font-family="Times,serif" font-size="14.00">CMPT466</text>
</g>
<!-- CMPT466&#45;&gt;MACM316 -->
<g id="edge34" class="edge">
<title>CMPT466&#45;&gt;MACM316</title>
<path fill="none" stroke="black" d="M521.43,-290.98C516.51,-289.86 511.57,-288.85 506.79,-288 340.18,-258.5 294.56,-280.6 127.79,-252 119.52,-250.58 110.76,-248.69 102.39,-246.69"/>
<polygon fill="black" stroke="black" points="520.91,-294.45 531.45,-293.37 522.54,-287.64 520.91,-294.45"/>
</g>
<!-- CMPT466&#45;&gt;CMPT361 -->
<g id="edge35" class="edge">
<title>CMPT466&#45;&gt;CMPT361</title>
<path fill="none" stroke="black" d="M623.51,-291.34C628,-290.19 632.47,-289.07 636.79,-288 705.46,-271.05 723.13,-268.95 791.79,-252 799.27,-250.16 807.21,-248.13 814.88,-246.14"/>
<polygon fill="black" stroke="black" points="622.52,-287.98 613.71,-293.86 624.27,-294.76 622.52,-287.98"/>
</g>
<!-- CMPT127&#45;&gt;CMPT120 -->
<g id="edge37" class="edge">
<title>CMPT127&#45;&gt;CMPT120</title>
<path fill="none" stroke="black" d="M1350.12,-64.95C1340.95,-55.23 1330.61,-44.26 1322.32,-35.47"/>
<polygon fill="black" stroke="black" points="1347.75,-67.54 1357.15,-72.41 1352.84,-62.73 1347.75,-67.54"/>
</g>
<!-- CMPT417 -->
<g id="node38" class="node">
<title>CMPT417</title>
<ellipse fill="none" stroke="black" cx="987.79" cy="-234" rx="56.59" ry="18"/>
<text text-anchor="middle" x="987.79" y="-230.3" font-family="Times,serif" font-size="14.00">CMPT417</text>
</g>
<!-- CMPT417&#45;&gt;CMPT225 -->
<g id="edge46" class="edge">
<title>CMPT417&#45;&gt;CMPT225</title>
<path fill="none" stroke="black" d="M1015.3,-210.35C1027.65,-200.18 1041.94,-188.41 1053.19,-179.15"/>
<polygon fill="black" stroke="black" points="1013,-207.71 1007.51,-216.76 1017.45,-213.11 1013,-207.71"/>
</g>
<!-- CMPT419 -->
<g id="node39" class="node">
<title>CMPT419</title>
<ellipse fill="none" stroke="black" cx="1426.79" cy="-378" rx="56.59" ry="18"/>
<text text-anchor="middle" x="1426.79" y="-374.3" font-family="Times,serif" font-size="14.00">CMPT419</text>
</g>
</g>
</svg>
